<?xml version="1.0" encoding="UTF-8" standalone="no"?>
<!DOCTYPE svg PUBLIC "-//W3C//DTD SVG 1.1//EN"
 "http://www.w3.org/Graphics/SVG/1.1/DTD/svg11.dtd">
<!-- Generated by graphviz version 2.38.0 (20140413.2041)
 -->
<!-- Title: Filters Pages: 1 -->
<svg width="367pt" height="188pt"
 viewBox="0.00 0.00 366.69 188.00" xmlns="http://www.w3.org/2000/svg" xmlns:xlink="http://www.w3.org/1999/xlink">
<g id="graph0" class="graph" transform="scale(1 1) rotate(0) translate(4 184)">
<title>Filters</title>
<polygon fill="white" stroke="none" points="-4,4 -4,-184 362.689,-184 362.689,4 -4,4"/>
<!-- BF -->
<g id="node1" class="node"><title>BF</title>
<g id="a_node1"><a xlink:href="http://localhost:8888/notebooks/Talks/geolocation/KalmanTalk/1 G-H Filters.ipynb" xlink:title="Bayesian Filter">
<ellipse fill="none" stroke="black" cx="230.544" cy="-162" rx="64.189" ry="18"/>
<text text-anchor="middle" x="230.544" y="-158.3" font-family="Times,serif" font-size="14.00">Bayesian Filter</text>
</a>
</g>
</g>
<!-- Kalman Filter -->
<g id="node2" class="node"><title>Kalman Filter</title>
<ellipse fill="none" stroke="black" cx="161.544" cy="-90" rx="60.3893" ry="18"/>
<text text-anchor="middle" x="161.544" y="-86.3" font-family="Times,serif" font-size="14.00">Kalman Filter</text>
</g>
<!-- BF&#45;&gt;Kalman Filter -->
<g id="edge1" class="edge"><title>BF&#45;&gt;Kalman Filter</title>
<path fill="none" stroke="black" d="M214.192,-144.411C205.427,-135.519 194.477,-124.411 184.837,-114.631"/>
<polygon fill="black" stroke="black" points="187.291,-112.135 177.778,-107.47 182.306,-117.049 187.291,-112.135"/>
</g>
<!-- Particle Filter -->
<g id="node5" class="node"><title>Particle Filter</title>
<ellipse fill="none" stroke="black" cx="299.544" cy="-90" rx="59.2899" ry="18"/>
<text text-anchor="middle" x="299.544" y="-86.3" font-family="Times,serif" font-size="14.00">Particle Filter</text>
</g>
<!-- BF&#45;&gt;Particle Filter -->
<g id="edge4" class="edge"><title>BF&#45;&gt;Particle Filter</title>
<path fill="none" stroke="black" d="M246.896,-144.411C255.661,-135.519 266.61,-124.411 276.251,-114.631"/>
<polygon fill="black" stroke="black" points="278.782,-117.049 283.309,-107.47 273.796,-112.135 278.782,-117.049"/>
</g>
<!-- Unscented Filter -->
<g id="node3" class="node"><title>Unscented Filter</title>
<ellipse fill="none" stroke="black" cx="69.5438" cy="-18" rx="69.5877" ry="18"/>
<text text-anchor="middle" x="69.5438" y="-14.3" font-family="Times,serif" font-size="14.00">Unscented Filter</text>
</g>
<!-- Kalman Filter&#45;&gt;Unscented Filter -->
<g id="edge2" class="edge"><title>Kalman Filter&#45;&gt;Unscented Filter</title>
<path fill="none" stroke="black" d="M140.206,-72.7646C127.898,-63.3997 112.245,-51.4899 98.8014,-41.2612"/>
<polygon fill="black" stroke="black" points="100.844,-38.4172 90.766,-35.1473 96.605,-43.988 100.844,-38.4172"/>
</g>
<!-- Extended Kalman Filter -->
<g id="node4" class="node"><title>Extended Kalman Filter</title>
<ellipse fill="none" stroke="black" cx="253.544" cy="-18" rx="96.3833" ry="18"/>
<text text-anchor="middle" x="253.544" y="-14.3" font-family="Times,serif" font-size="14.00">Extended Kalman Filter</text>
</g>
<!-- Kalman Filter&#45;&gt;Extended Kalman Filter -->
<g id="edge3" class="edge"><title>Kalman Filter&#45;&gt;Extended Kalman Filter</title>
<path fill="none" stroke="black" d="M182.882,-72.7646C195.014,-63.5334 210.396,-51.8297 223.709,-41.7006"/>
<polygon fill="black" stroke="black" points="225.844,-44.4741 231.683,-35.6334 221.605,-38.9032 225.844,-44.4741"/>
</g>
</g>
</svg>
